<svg width="16" height="20" viewBox="0 0 16 20" fill="none" xmlns="http://www.w3.org/2000/svg">
<path d="M6.8 0.772522C6.13726 0.772522 5.6 1.30978 5.6 1.97252C5.6 2.63526 6.13726 3.17252 6.8 3.17252H9.2C9.86275 3.17252 10.4 2.63526 10.4 1.97252C10.4 1.30978 9.86275 0.772522 9.2 0.772522H6.8Z" fill="#A3B18A"/>
<path fill-rule="evenodd" clip-rule="evenodd" d="M0.800003 4.37252C0.800003 3.04704 1.87452 1.97252 3.2 1.97252C3.2 3.96075 4.81178 5.57252 6.8 5.57252H9.2C11.1882 5.57252 12.8 3.96075 12.8 1.97252C14.1255 1.97252 15.2 3.04704 15.2 4.37252V17.5725C15.2 18.898 14.1255 19.9725 12.8 19.9725H3.2C1.87452 19.9725 0.800003 18.898 0.800003 17.5725V4.37252ZM12.4485 11.221C12.9172 10.7524 12.9172 9.99262 12.4485 9.52399C11.9799 9.05536 11.2201 9.05536 10.7515 9.52399L6.8 13.4755L5.24853 11.924C4.7799 11.4554 4.0201 11.4554 3.55148 11.924C3.08285 12.3926 3.08285 13.1524 3.55148 13.621L5.95148 16.021C6.4201 16.4897 7.1799 16.4897 7.64853 16.021L12.4485 11.221Z" fill="#A3B18A"/>
</svg>
