<svg width="22" height="18" viewBox="0 0 22 18" fill="none" xmlns="http://www.w3.org/2000/svg">
<path d="M9.79999 4.57253C9.79999 6.56076 8.18821 8.17253 6.19999 8.17253C4.21176 8.17253 2.59999 6.56076 2.59999 4.57253C2.59999 2.58431 4.21176 0.972534 6.19999 0.972534C8.18821 0.972534 9.79999 2.58431 9.79999 4.57253Z" fill="#A3B18A"/>
<path d="M19.4 4.57253C19.4 6.56076 17.7882 8.17253 15.8 8.17253C13.8118 8.17253 12.2 6.56076 12.2 4.57253C12.2 2.58431 13.8118 0.972534 15.8 0.972534C17.7882 0.972534 19.4 2.58431 19.4 4.57253Z" fill="#A3B18A"/>
<path d="M14.5149 17.7725C14.571 17.3806 14.6 16.98 14.6 16.5725C14.6 14.6103 13.9272 12.8052 12.7997 11.3754C13.6823 10.8648 14.707 10.5725 15.8 10.5725C19.1137 10.5725 21.8 13.2588 21.8 16.5725V17.7725H14.5149Z" fill="#A3B18A"/>
<path d="M6.19999 10.5725C9.5137 10.5725 12.2 13.2588 12.2 16.5725V17.7725H0.199989V16.5725C0.199989 13.2588 2.88628 10.5725 6.19999 10.5725Z" fill="#A3B18A"/>
</svg>
