<svg width="20" height="20" viewBox="0 0 20 20" fill="none" xmlns="http://www.w3.org/2000/svg">
<path fill-rule="evenodd" clip-rule="evenodd" d="M11.7871 1.40513C11.3322 -0.468376 8.66776 -0.468377 8.21294 1.40513C7.91912 2.61539 6.53254 3.18973 5.469 2.54171C3.82262 1.53855 1.93855 3.42262 2.94171 5.069C3.58973 6.13254 3.01539 7.51912 1.80513 7.81293C-0.0683755 8.26776 -0.0683747 10.9322 1.80513 11.3871C3.01539 11.6809 3.58974 13.0675 2.94171 14.131C1.93855 15.7774 3.82262 17.6615 5.469 16.6583C6.53254 16.0103 7.91912 16.5846 8.21294 17.7949C8.66776 19.6684 11.3322 19.6684 11.7871 17.7949C12.0809 16.5846 13.4675 16.0103 14.531 16.6583C16.1774 17.6615 18.0615 15.7774 17.0583 14.131C16.4103 13.0675 16.9846 11.6809 18.1949 11.3871C20.0684 10.9322 20.0684 8.26776 18.1949 7.81293C16.9846 7.51912 16.4103 6.13254 17.0583 5.069C18.0615 3.42262 16.1774 1.53855 14.531 2.54171C13.4675 3.18973 12.0809 2.61539 11.7871 1.40513ZM10 13.2C11.9882 13.2 13.6 11.5882 13.6 9.6C13.6 7.61177 11.9882 6 10 6C8.01178 6 6.4 7.61177 6.4 9.6C6.4 11.5882 8.01178 13.2 10 13.2Z" fill="#A3B18A"/>
</svg>
