<svg width="18" height="18" viewBox="0 0 18 18" fill="none" xmlns="http://www.w3.org/2000/svg">
<path d="M3 9H1M3 9C3 10.1046 3.89543 11 5 11C6.10457 11 7 10.1046 7 9M3 9C3 7.89543 3.89543 7 5 7C6.10457 7 7 7.89543 7 9M15 15C15 13.8954 14.1046 13 13 13C11.8954 13 11 13.8954 11 15M15 15C15 16.1046 14.1046 17 13 17C11.8954 17 11 16.1046 11 15M15 15H17M11 15H1M7 9H17M15 3C15 1.89543 14.1046 1 13 1C11.8954 1 11 1.89543 11 3M15 3C15 4.10457 14.1046 5 13 5C11.8954 5 11 4.10457 11 3M15 3L17 3M11 3H1" stroke="white" stroke-width="1.6" stroke-linecap="round" stroke-linejoin="round"/>
</svg>
