<svg width="6" height="20" viewBox="0 0 6 20" fill="none" xmlns="http://www.w3.org/2000/svg">
<path d="M0.207163 17.6052C0.101841 17.4999 0.0426721 17.3571 0.0426721 17.2081C0.0426721 17.0592 0.101841 16.9163 0.207163 16.811C0.312485 16.7057 0.455332 16.6465 0.604279 16.6465C0.753227 16.6465 0.896074 16.7057 1.0014 16.811L2.27664 18.0863V1.91636L1.0014 3.19161C0.894556 3.29403 0.752279 3.35121 0.604279 3.35121C0.45628 3.35121 0.314002 3.29403 0.207163 3.19161C0.154739 3.13961 0.113129 3.07775 0.0847331 3.00959C0.0563373 2.94144 0.0417175 2.86833 0.0417175 2.79449C0.0417175 2.72066 0.0563373 2.64755 0.0847331 2.57939C0.113129 2.51123 0.154739 2.44937 0.207163 2.39738L2.44444 0.160102C2.54634 0.0609043 2.68257 0.00481179 2.82477 0.00349344C2.97741 0.0024476 3.12496 0.0582783 3.23867 0.160102L5.47594 2.39738C5.57563 2.5056 5.63096 2.64736 5.63096 2.79449C5.63096 2.94163 5.57563 3.08338 5.47594 3.19161C5.42395 3.24403 5.36209 3.28564 5.29393 3.31404C5.22577 3.34243 5.15266 3.35705 5.07883 3.35705C5.00499 3.35705 4.93188 3.34243 4.86373 3.31404C4.79557 3.28564 4.73371 3.24403 4.68171 3.19161L3.39528 1.90518V18.0919L4.68171 16.8054C4.73386 16.7533 4.79577 16.7119 4.86391 16.6837C4.93205 16.6555 5.00508 16.6409 5.07883 16.6409C5.15258 16.6409 5.22561 16.6555 5.29375 16.6837C5.36188 16.7119 5.42379 16.7533 5.47594 16.8054C5.52809 16.8576 5.56946 16.9195 5.59768 16.9876C5.62591 17.0558 5.64043 17.1288 5.64043 17.2025C5.64043 17.2763 5.62591 17.3493 5.59768 17.4175C5.56946 17.4856 5.52809 17.5475 5.47594 17.5997L3.23867 19.8369C3.13183 19.9393 2.98955 19.9965 2.84155 19.9965C2.69355 19.9965 2.55128 19.9393 2.44444 19.8369L0.207163 17.6052Z" fill="black"/>
</svg>
