<svg width="24" height="18" viewBox="0 0 24 18" fill="none" xmlns="http://www.w3.org/2000/svg">
<path d="M17.8232 17.4808H9.28006C7.06966 17.513 4.93198 16.6915 3.31204 15.1873C1.6921 13.6831 0.714714 11.612 0.583349 9.40527C0.528423 8.25842 0.706933 7.11235 1.10806 6.03652C1.50919 4.9607 2.12458 3.97753 2.91694 3.14659C3.70931 2.31565 4.66214 1.65424 5.71769 1.20246C6.77324 0.75068 7.90954 0.517927 9.05771 0.518311C10.9151 0.525193 12.7194 1.13884 14.1958 2.26582C15.6722 3.39279 16.7399 4.97137 17.2364 6.76119C18.0932 6.64245 18.9659 6.7304 19.7818 7.01771C20.5977 7.30502 21.3329 7.78334 21.9263 8.41274C22.4336 8.95042 22.8238 9.58748 23.0724 10.2837C23.3209 10.9798 23.4224 11.72 23.3704 12.4574C23.2528 13.8411 22.615 15.1289 21.5856 16.0611C20.5563 16.9932 19.2118 17.5006 17.8232 17.4808ZM1.72832 9.3537C1.84665 11.2656 2.69767 13.0582 4.10429 14.3585C5.51091 15.6588 7.36477 16.3667 9.28006 16.3347H17.8232C18.9212 16.354 19.9857 15.9564 20.8022 15.222C21.6187 14.4876 22.1264 13.4711 22.2231 12.3771C22.2676 11.7189 22.1579 11.0594 21.9027 10.451C21.6475 9.84259 21.2538 9.30214 20.7531 8.8726C20.2523 8.44306 19.6582 8.13629 19.0181 7.97667C18.378 7.81706 17.7094 7.809 17.0656 7.95315L16.8364 8.00587L16.5281 7.86031C16.4487 7.80998 16.3801 7.74433 16.3264 7.66718C16.2727 7.59004 16.2349 7.50296 16.2152 7.41104C15.8496 5.78401 14.9423 4.32937 13.642 3.28534C12.3416 2.24132 10.7253 1.66981 9.05771 1.66442C8.06419 1.66403 7.08094 1.86547 6.16762 2.25652C5.25429 2.64758 4.42993 3.2201 3.74455 3.93936C3.05916 4.65862 2.52703 5.50961 2.18044 6.44072C1.83386 7.37183 1.68004 8.36364 1.72832 9.35599V9.3537Z" fill="#010202"/>
</svg>
