<svg width="7" height="13" viewBox="0 0 7 13" fill="none" xmlns="http://www.w3.org/2000/svg">
<path d="M6.74875 7.10147C6.82835 7.02283 6.89154 6.92917 6.93468 6.82592C6.97781 6.72268 7.00002 6.61189 7.00002 6.5C7.00002 6.38811 6.97781 6.27732 6.93468 6.17408C6.89154 6.07083 6.82835 5.97717 6.74875 5.89853L1.59332 0.743103C1.43325 0.586237 1.21774 0.498879 0.993628 0.500011C0.769513 0.501143 0.554901 0.590674 0.396426 0.749148C0.237951 0.907623 0.148421 1.12224 0.147289 1.34635C0.146157 1.57046 0.233514 1.78597 0.39038 1.94604L4.92716 6.5L0.39038 11.054C0.233514 11.214 0.146157 11.4295 0.147289 11.6537C0.148421 11.8778 0.237951 12.0924 0.396426 12.2509C0.554901 12.4093 0.769513 12.4989 0.993628 12.5C1.21774 12.5011 1.43325 12.4138 1.59332 12.2569L6.74875 7.10147Z" fill="#A3B18A"/>
</svg>
