<svg width="23" height="20" viewBox="0 0 23 20" fill="none" xmlns="http://www.w3.org/2000/svg">
<path d="M22.2527 7.09838L20.0739 5.89429L20.739 3.41731C20.7884 3.22999 20.788 3.03299 20.7377 2.8459C20.6874 2.6588 20.589 2.48813 20.4523 2.35084C20.3145 2.21505 20.1434 2.11808 19.9561 2.06975C19.7688 2.02142 19.5721 2.02344 19.3858 2.07562L16.9891 2.76367L15.6933 0.538972C15.593 0.376101 15.4531 0.241261 15.2867 0.147019C15.1203 0.0527766 14.9327 0.0021992 14.7415 0C14.5506 0.00305738 14.3638 0.055331 14.199 0.151762C14.0343 0.248193 13.8972 0.385516 13.8011 0.55044L12.5856 2.74073L10.1086 2.07562C9.92406 2.02488 9.72942 2.02361 9.54423 2.07192C9.35905 2.12023 9.18983 2.21642 9.05359 2.35084C8.9163 2.48773 8.81752 2.65839 8.76719 2.84562C8.71686 3.03285 8.71676 3.23004 8.7669 3.41731L9.45495 5.82549L8.57195 6.33006C8.03272 6.20218 7.48056 6.13676 6.92637 6.13511C5.09127 6.13481 3.33108 6.86287 2.0324 8.15941C0.733719 9.45594 0.00273484 11.2149 0 13.05C0 13.1647 0.0114675 13.2794 0.0114675 13.394C0.116157 15.1973 0.912689 16.8907 2.23507 18.1212C3.55746 19.3517 5.30368 20.0245 7.10985 19.9993H13.9674C15.1137 20.0144 16.2231 19.5945 17.0721 18.8242C17.9212 18.0539 18.4467 16.9904 18.5429 15.8481C18.5913 15.1072 18.4533 14.366 18.1416 13.6922L19.403 14.0362C19.4968 14.0596 19.5931 14.0712 19.6897 14.0706C19.833 14.0729 19.9752 14.0456 20.1074 13.9903C20.2396 13.9351 20.359 13.8531 20.458 13.7495C20.5945 13.6145 20.6929 13.4459 20.7433 13.2606C20.7936 13.0753 20.7941 12.88 20.7447 12.6945L20.0567 10.2863L22.2699 9.00199C22.4352 8.90441 22.572 8.76514 22.6666 8.59811C22.7611 8.43107 22.8102 8.24213 22.8089 8.05018C22.8098 7.85629 22.7587 7.66569 22.6608 7.49828C22.563 7.33086 22.4221 7.19277 22.2527 7.09838ZM13.3883 12.339C13.8884 12.2278 14.4076 12.2348 14.9046 12.3593C15.4015 12.4839 15.8626 12.7227 16.2511 13.0567C16.6397 13.3906 16.9449 13.8106 17.1427 14.2833C17.3405 14.7559 17.4253 15.2681 17.3905 15.7793C17.3132 16.6301 16.9166 17.42 16.2805 17.9902C15.6443 18.5604 14.8158 18.8685 13.9617 18.8526H7.10412C5.57675 18.8581 4.10314 18.2891 2.97582 17.2586C1.87126 16.249 1.21155 14.843 1.14102 13.3482C1.10261 12.565 1.22386 11.7823 1.49738 11.0475C1.77091 10.3127 2.191 9.64114 2.73213 9.07373C3.27326 8.50633 3.92411 8.05489 4.64514 7.74685C5.36617 7.43881 6.1423 7.28061 6.92637 7.28186C7.84097 7.28753 8.74154 7.50725 9.55599 7.92343C10.3704 8.33962 11.0761 8.9407 11.6166 9.67857C11.7853 9.91693 11.9385 10.1659 12.0753 10.424C12.2989 10.8632 12.4647 11.3296 12.5684 11.8115C12.6168 11.9846 12.727 12.1339 12.8781 12.2311C13.0292 12.3283 13.2108 12.3667 13.3883 12.339ZM12.3333 8.06165C12.3315 7.47778 12.5412 6.91301 12.9237 6.47188C13.3062 6.03076 13.8356 5.74314 14.4138 5.66227C14.9921 5.5814 15.5801 5.71276 16.0689 6.03203C16.5578 6.3513 16.9144 6.83686 17.0728 7.39883C17.1745 7.75916 17.1913 8.13813 17.1219 8.50605C17.0526 8.87396 16.899 9.22081 16.6732 9.51942C16.4473 9.81802 16.1554 10.0603 15.8202 10.2271C15.4851 10.394 15.1159 10.481 14.7415 10.4813C14.1135 10.4427 13.5214 10.1751 13.0776 9.72911C12.6337 9.28315 12.3689 8.68984 12.3333 8.06165ZM17.0579 12.2358C16.6899 11.9137 16.2715 11.6542 15.8194 11.4675C16.4322 11.2773 16.9824 10.9252 17.4118 10.4484C17.8413 9.97168 18.1342 9.38789 18.2596 8.7586C18.3851 8.12931 18.3384 7.47783 18.1245 6.87285C17.9107 6.26787 17.5376 5.73179 17.0445 5.32112C16.5515 4.91046 15.9568 4.64042 15.3231 4.53947C14.6894 4.43853 14.0402 4.51042 13.444 4.74757C12.8477 4.98471 12.3265 5.37833 11.9353 5.88692C11.544 6.39551 11.2973 7.00024 11.2209 7.63735C10.8317 7.33265 10.4129 7.06758 9.97099 6.8461L10.0398 6.81169C10.2435 6.68744 10.4022 6.50146 10.493 6.28079C10.5837 6.06013 10.6017 5.81627 10.5444 5.58467L9.81045 3.1765L12.2989 3.84161C12.5305 3.89842 12.7742 3.88015 12.9947 3.78946C13.2152 3.69877 13.4013 3.54034 13.5259 3.33704L14.7071 1.12382L15.9914 3.32557C16.111 3.53717 16.2977 3.70283 16.522 3.7963C16.7464 3.88978 16.9955 3.90572 17.2299 3.84161L19.6266 3.11916L18.973 5.5732C18.8985 5.80771 18.9081 6.06085 19.0002 6.28902C19.0923 6.51718 19.2611 6.70607 19.4775 6.82316L21.6793 8.01578L19.4775 9.28867C19.2644 9.40656 19.0973 9.5931 19.0036 9.81797C18.91 10.0428 18.8951 10.2928 18.9615 10.5272L19.684 12.9239L17.0579 12.2358Z" fill="white"/>
</svg>
