<svg width="21" height="22" viewBox="0 0 21 22" fill="none" xmlns="http://www.w3.org/2000/svg">
<path d="M10.6863 21.0285C10.4723 21.0299 10.2618 20.9743 10.0764 20.8674C9.89106 20.7605 9.73748 20.6062 9.63149 20.4203L8.0044 17.6206C7.9941 17.6009 7.9772 17.5856 7.95668 17.5771C7.93615 17.5687 7.91332 17.5678 7.89219 17.5746L4.77042 18.4061C4.56422 18.4604 4.34739 18.4597 4.14155 18.4041C3.9357 18.3484 3.74804 18.2398 3.59726 18.089C3.44649 17.9383 3.33787 17.7506 3.28224 17.5448C3.22662 17.3389 3.22592 17.1221 3.28023 16.9159L4.11958 13.7739C4.12549 13.7528 4.12417 13.7302 4.11583 13.7099C4.1075 13.6896 4.09263 13.6726 4.07357 13.6617L1.26825 12.047C1.08299 11.94 0.929156 11.7862 0.822199 11.6009C0.715243 11.4157 0.658936 11.2055 0.658936 10.9916C0.658936 10.7777 0.715243 10.5675 0.822199 10.3823C0.929156 10.197 1.08299 10.0432 1.26825 9.93623L4.06572 8.31812C4.08492 8.30734 4.09991 8.29039 4.10826 8.27002C4.11661 8.24965 4.11783 8.22706 4.11173 8.2059L3.28023 5.08413C3.22592 4.87794 3.22662 4.66111 3.28224 4.45526C3.33787 4.24942 3.44649 4.06175 3.59726 3.91098C3.74804 3.7602 3.9357 3.65159 4.14155 3.59596C4.34739 3.54033 4.56422 3.53964 4.77042 3.59394L7.91239 4.4333C7.93355 4.43863 7.95587 4.43704 7.97606 4.42876C7.99626 4.42048 8.01327 4.40594 8.0246 4.38729L9.63935 1.58196C9.74457 1.39697 9.89683 1.24307 10.0807 1.13587C10.2645 1.02867 10.4735 0.971974 10.6863 0.971522C10.9003 0.970126 11.1108 1.02573 11.2962 1.13262C11.4815 1.23951 11.6351 1.39383 11.7411 1.57972L13.3682 4.37944C13.3785 4.39908 13.3954 4.41447 13.4159 4.42288C13.4364 4.4313 13.4593 4.4322 13.4804 4.42544L16.6022 3.59394C16.8084 3.53964 17.0252 3.54033 17.231 3.59596C17.4369 3.65159 17.6246 3.7602 17.7753 3.91098C17.9261 4.06175 18.0347 4.24942 18.0903 4.45526C18.146 4.66111 18.1467 4.87794 18.0924 5.08413L17.253 8.2261C17.2469 8.24725 17.2481 8.26985 17.2565 8.29022C17.2648 8.31059 17.2798 8.32754 17.299 8.33832L20.1043 9.95306C20.2896 10.06 20.4434 10.2139 20.5504 10.3991C20.6573 10.5844 20.7137 10.7945 20.7137 11.0084C20.7137 11.2223 20.6573 11.4325 20.5504 11.6177C20.4434 11.803 20.2896 11.9568 20.1043 12.0638L17.3069 13.6819C17.288 13.693 17.2732 13.71 17.2649 13.7302C17.2566 13.7505 17.2552 13.773 17.2609 13.7941L18.1002 16.9181C18.1547 17.125 18.1538 17.3425 18.0976 17.5489C18.0414 17.7553 17.932 17.9433 17.7802 18.094C17.6285 18.2448 17.4397 18.353 17.233 18.4077C17.0262 18.4625 16.8087 18.4619 16.6022 18.4061L13.4602 17.5667C13.439 17.561 13.4166 17.5624 13.3963 17.5707C13.376 17.5791 13.3591 17.5938 13.348 17.6127L11.7332 20.4181C11.6274 20.6042 11.4739 20.7589 11.2885 20.8661C11.1032 20.9734 10.8926 21.0294 10.6784 21.0285H10.6863ZM7.91912 16.4457C8.13299 16.4458 8.34311 16.5018 8.52857 16.6083C8.71403 16.7148 8.86835 16.8681 8.97617 17.0528L10.601 19.8581C10.6092 19.8732 10.6213 19.8857 10.6362 19.8942C10.6511 19.9028 10.668 19.907 10.6852 19.9064C10.7021 19.9069 10.7189 19.9026 10.7336 19.8941C10.7483 19.8856 10.7603 19.8731 10.7682 19.8581L12.3841 17.0528C12.5176 16.82 12.7244 16.6379 12.9723 16.535C13.2201 16.4321 13.4951 16.4141 13.7542 16.4839L16.8962 17.3221C16.9126 17.3264 16.9299 17.3262 16.9463 17.3218C16.9627 17.3173 16.9776 17.3086 16.9896 17.2966C17.0016 17.2846 17.0103 17.2697 17.0148 17.2533C17.0193 17.2369 17.0194 17.2196 17.0151 17.2032L16.1769 14.078C16.1073 13.8196 16.1245 13.5454 16.2259 13.2977C16.3273 13.0499 16.5072 12.8423 16.7379 12.7068L19.5433 11.0819C19.5582 11.0735 19.5707 11.0613 19.5793 11.0465C19.588 11.0317 19.5926 11.0149 19.5926 10.9978C19.5926 10.9806 19.588 10.9638 19.5793 10.949C19.5707 10.9342 19.5582 10.922 19.5433 10.9136L16.7379 9.29886C16.5056 9.16493 16.3238 8.95807 16.221 8.71035C16.1181 8.46263 16.0999 8.18789 16.169 7.92874L17.0073 4.78677C17.0124 4.7705 17.0128 4.7531 17.0085 4.73661C17.0041 4.72011 16.9951 4.7052 16.9826 4.69363C16.9705 4.68113 16.9552 4.67214 16.9384 4.66759C16.9216 4.66305 16.9039 4.66313 16.8872 4.66782L13.7632 5.50606C13.5047 5.57581 13.2305 5.55868 12.9827 5.4573C12.7349 5.35592 12.5274 5.17591 12.3919 4.94499L10.7671 2.13966C10.7589 2.12551 10.7471 2.11379 10.7329 2.1057C10.7187 2.09762 10.7026 2.09346 10.6863 2.09365C10.6693 2.09314 10.6526 2.09739 10.6379 2.10592C10.6232 2.11444 10.6112 2.12691 10.6033 2.14191L8.98739 4.94723C8.85326 5.17972 8.6462 5.36148 8.39829 5.46433C8.15037 5.56719 7.87546 5.5854 7.61614 5.51615L4.47418 4.67792C4.45773 4.67367 4.44045 4.67379 4.42406 4.67826C4.40767 4.68273 4.39273 4.6914 4.38072 4.70341C4.36871 4.71542 4.36003 4.73037 4.35556 4.74676C4.35109 4.76315 4.35098 4.78042 4.35523 4.79687L5.19907 7.91864C5.26864 8.1771 5.25141 8.45126 5.15005 8.69899C5.04869 8.94672 4.8688 9.15431 4.63801 9.28988L1.83268 10.9147C1.81658 10.9223 1.80303 10.9344 1.79367 10.9496C1.78431 10.9647 1.77954 10.9822 1.77994 11C1.77943 11.017 1.78367 11.0337 1.7922 11.0484C1.80073 11.0631 1.8132 11.0751 1.82819 11.083L4.63352 12.6989C4.86578 12.833 5.04738 13.0399 5.15022 13.2875C5.25307 13.5352 5.27142 13.8099 5.20244 14.069L4.36421 17.211C4.35904 17.2273 4.35862 17.2447 4.363 17.2612C4.36737 17.2777 4.37635 17.2926 4.38889 17.3041C4.40106 17.3165 4.41631 17.3255 4.43308 17.33C4.44984 17.3345 4.46752 17.3345 4.48427 17.33L7.60829 16.4917C7.70946 16.4629 7.81395 16.4475 7.91912 16.4457Z" fill="black"/>
<path d="M10.6863 15.3482C9.8263 15.3482 8.98561 15.0932 8.27054 14.6154C7.55547 14.1376 6.99815 13.4585 6.66904 12.6639C6.33993 11.8694 6.25382 10.9951 6.4216 10.1516C6.58937 9.30815 7.00351 8.53336 7.61162 7.92525C8.21974 7.31713 8.99452 6.903 9.838 6.73522C10.6815 6.56745 11.5558 6.65356 12.3503 6.98267C13.1449 7.31178 13.824 7.8691 14.3018 8.58417C14.7795 9.29924 15.0346 10.1399 15.0346 10.9999C15.0331 12.1527 14.5745 13.2578 13.7593 14.073C12.9442 14.8881 11.8391 15.3467 10.6863 15.3482ZM10.6863 7.77381C10.0482 7.77381 9.4245 7.96301 8.89396 8.31751C8.36343 8.672 7.94993 9.17585 7.70575 9.76535C7.46157 10.3548 7.39769 11.0035 7.52217 11.6293C7.64665 12.2551 7.95391 12.83 8.40509 13.2812C8.85627 13.7323 9.43111 14.0396 10.0569 14.1641C10.6827 14.2886 11.3314 14.2247 11.9209 13.9805C12.5104 13.7363 13.0142 13.3228 13.3687 12.7923C13.7232 12.2617 13.9124 11.638 13.9124 10.9999C13.9112 10.1447 13.571 9.32479 12.9662 8.72003C12.3615 8.11527 11.5416 7.77499 10.6863 7.77381Z" fill="black"/>
</svg>
