<svg width="16" height="22" viewBox="0 0 16 22" fill="none" xmlns="http://www.w3.org/2000/svg">
<path d="M5.325 11L4.792 11.26L3.268 12.005C1.756 12.745 1 13.115 1 13.575C1 14.035 1.756 14.405 3.268 15.145L4.792 15.89C6.304 16.63 7.06 17 8 17C8.94 17 9.696 16.63 11.208 15.89L12.732 15.145C14.244 14.405 15 14.035 15 13.575C15 13.115 14.244 12.745 12.732 12.005L11.208 11.26L10.675 11" stroke="#010202" stroke-width="1.5" stroke-linecap="round" stroke-linejoin="round"/>
<path d="M15 13.5V17.267C15 17.767 14.244 18.171 12.732 18.977L11.208 19.79C9.696 20.597 8.94 21 8 21C7.06 21 6.304 20.597 4.792 19.79L3.268 18.978C1.756 18.17 1 17.768 1 17.267V13.5M8 8C8.45963 8 8.91475 7.90947 9.33939 7.73358C9.76403 7.55769 10.1499 7.29988 10.4749 6.97487C10.7999 6.64987 11.0577 6.26403 11.2336 5.83939C11.4095 5.41475 11.5 4.95963 11.5 4.5C11.5 3.57174 11.1313 2.6815 10.4749 2.02513C9.8185 1.36875 8.92826 1 8 1C7.07174 1 6.1815 1.36875 5.52513 2.02513C4.86875 2.6815 4.5 3.57174 4.5 4.5C4.5 4.95963 4.59053 5.41475 4.76642 5.83939C4.94231 6.26403 5.20012 6.64987 5.52513 6.97487C5.85013 7.29988 6.23597 7.55769 6.66061 7.73358C7.08525 7.90947 7.54037 8 8 8ZM8 8V13.5" stroke="#010202" stroke-width="1.5" stroke-linecap="round" stroke-linejoin="round"/>
</svg>
