<svg width="19" height="20" viewBox="0 0 19 20" fill="none" xmlns="http://www.w3.org/2000/svg">
<path d="M9.99987 9.07819C9.99987 12.5954 8.99109 15.877 7.24707 18.6494M3.80688 16.6086C3.82459 16.5787 3.84273 16.5491 3.8613 16.5195C5.2158 14.3663 5.99991 11.82 5.99991 9.07819C5.99991 6.86905 7.79077 5.07819 9.99991 5.07819C12.209 5.07819 13.9999 6.86905 13.9999 9.07819C13.9999 10.0952 13.9307 11.0968 13.7966 12.0782M11.6792 18.9218C12.2909 17.7008 12.7924 16.4151 13.1707 15.0782M17.0097 16.2101C17.6547 13.9439 18 11.5513 18 9.07819C18 4.65991 14.4183 1.07819 10 1.07819C8.54285 1.07819 7.17669 1.46776 6 2.14844M1 13.4423C1.64066 12.1235 2 10.6428 2 9.07819C2 7.62104 2.38958 6.25488 3.07026 5.07819" stroke="#010202" stroke-width="1.6" stroke-linecap="round" stroke-linejoin="round"/>
</svg>
