<svg width="22" height="16" viewBox="0 0 22 16" fill="none" xmlns="http://www.w3.org/2000/svg">
<path d="M14.8916 11.8906C13.8223 12.9598 12.5158 13.4999 11.0005 13.5L14.8916 11.8906ZM14.8916 11.8906C15.961 10.8211 16.5007 9.51476 16.5 7.99976M14.8916 11.8906L16.5 7.99976M16.5 7.99976C16.4993 6.48504 15.9593 5.17889 14.8907 4.10957M16.5 7.99976L14.8907 4.10957M14.8907 4.10957C13.8219 3.04005 12.5155 2.5 11 2.5M14.8907 4.10957L11 2.5M11 2.5C9.48448 2.5 8.17811 3.04005 7.10933 4.10957M11 2.5L7.10933 4.10957M7.10933 4.10957C6.04073 5.17889 5.50073 6.48504 5.5 7.99976M7.10933 4.10957L5.5 7.99976M5.5 7.99976C5.49927 9.51486 6.03944 10.8215 7.10945 11.8916M5.5 7.99976L7.10945 11.8916M7.10945 11.8916C8.17935 12.9615 9.48562 13.5013 11 13.5L7.10945 11.8916ZM1.5 13V13.5H2H6.1H7.30711L6.45355 12.6464C6.18944 12.3823 5.94423 12.0943 5.718 11.7818C5.49476 11.4734 5.29726 11.1409 5.12576 10.7836L4.98962 10.5H4.675H2H1.5V11V13ZM16.8736 5.21509L17.0094 5.5H17.325H20H20.5V5V3V2.5H20H15.9H14.6929L15.5464 3.35355C15.8107 3.61781 16.0564 3.90607 16.2834 4.21875C16.5069 4.5266 16.7037 4.8585 16.8736 5.21509ZM20.5 1V0.5H21.5V7.5H20.5V7V6.5H20H17.925H17.3151L17.4347 7.09806C17.4637 7.24298 17.4815 7.38197 17.4887 7.51527C17.4968 7.66295 17.5006 7.82381 17.5 7.99817V8C17.5 9.81968 16.8721 11.3462 15.6094 12.6095C14.3468 13.8727 12.8204 14.5006 11.0002 14.5H11H2H1.5V15V15.5H0.5V8.5H1.5V9V9.5H2H4.075H4.6849L4.56529 8.90194C4.53643 8.75766 4.51905 8.61937 4.51237 8.48682C4.50482 8.33724 4.50065 8.17474 4.5 7.99909C4.50021 6.17989 5.12841 4.65408 6.39147 3.39164C7.65483 2.12889 9.18105 1.50066 11 1.5C11.0001 1.5 11.0001 1.5 11.0002 1.5H20H20.5V1ZM11.0006 10.5H11C10.5835 10.5 10.2398 10.3577 9.94155 10.0594C9.64331 9.7612 9.50051 9.41692 9.5 8.99939C9.50008 8.6873 9.56433 8.3746 9.69842 8.05798C9.83936 7.72516 10.1229 7.21878 10.5673 6.52558L11 5.88919L11.4329 6.5258C11.8779 7.21837 12.1616 7.72457 12.3025 8.05769C12.4367 8.37522 12.5005 8.68792 12.5 8.99913V9C12.5 9.41649 12.3576 9.76074 12.0591 10.0597C11.7611 10.3583 11.4174 10.5005 11.0006 10.5Z" stroke="#010202"/>
</svg>
