<svg width="182" height="182" viewBox="0 0 182 182" fill="none" xmlns="http://www.w3.org/2000/svg">
<path d="M60.4239 70.404V69.324H66.8199V70.404H64.2159V78H63.0399V70.404H60.4239ZM66.4769 75.06C66.4769 73.248 67.7729 71.976 69.5369 71.976C71.2889 71.976 72.5849 73.248 72.5849 75.06C72.5849 76.872 71.2889 78.144 69.5369 78.144C67.7729 78.144 66.4769 76.872 66.4769 75.06ZM67.6169 75.06C67.6169 76.284 68.3969 77.136 69.5369 77.136C70.6649 77.136 71.4569 76.284 71.4569 75.06C71.4569 73.836 70.6649 72.984 69.5369 72.984C68.3969 72.984 67.6169 73.836 67.6169 75.06ZM75.431 78H74.303V73.08H73.151V72.132H74.303V70.296H75.431V72.132H76.583V73.08H75.431V78ZM79.241 78.144C77.981 78.144 77.237 77.436 77.237 76.368C77.237 75.288 78.041 74.616 79.421 74.508L81.269 74.364V74.196C81.269 73.212 80.681 72.864 79.889 72.864C78.941 72.864 78.401 73.284 78.401 73.992H77.417C77.417 72.768 78.425 71.964 79.937 71.964C81.389 71.964 82.373 72.732 82.373 74.316V78H81.413L81.293 77.052C80.993 77.724 80.189 78.144 79.241 78.144ZM79.565 77.268C80.633 77.268 81.281 76.572 81.281 75.468V75.156L79.781 75.276C78.785 75.372 78.377 75.756 78.377 76.332C78.377 76.956 78.833 77.268 79.565 77.268ZM85.0871 78H83.9591V69.168H85.0871V78ZM91.3969 69.324V78H90.2209V69.324H91.3969ZM92.7481 76.296H93.8281C93.8281 76.896 94.2841 77.256 95.0281 77.256C95.8201 77.256 96.2761 76.932 96.2761 76.392C96.2761 75.996 96.0841 75.756 95.4721 75.6L94.4401 75.36C93.3961 75.108 92.9041 74.592 92.9041 73.728C92.9041 72.648 93.8161 71.964 95.1121 71.964C96.3961 71.964 97.2361 72.684 97.2601 73.8H96.1801C96.1561 73.212 95.7601 72.84 95.0761 72.84C94.3681 72.84 93.9721 73.152 93.9721 73.692C93.9721 74.088 94.2601 74.352 94.8361 74.496L95.8681 74.748C96.8641 74.988 97.3561 75.444 97.3561 76.32C97.3561 77.436 96.3961 78.144 95.0041 78.144C93.6241 78.144 92.7481 77.412 92.7481 76.296ZM98.127 76.296H99.207C99.207 76.896 99.663 77.256 100.407 77.256C101.199 77.256 101.655 76.932 101.655 76.392C101.655 75.996 101.463 75.756 100.851 75.6L99.819 75.36C98.775 75.108 98.283 74.592 98.283 73.728C98.283 72.648 99.195 71.964 100.491 71.964C101.775 71.964 102.615 72.684 102.639 73.8H101.559C101.535 73.212 101.139 72.84 100.455 72.84C99.747 72.84 99.351 73.152 99.351 73.692C99.351 74.088 99.639 74.352 100.215 74.496L101.247 74.748C102.243 74.988 102.735 75.444 102.735 76.32C102.735 77.436 101.775 78.144 100.383 78.144C99.003 78.144 98.127 77.412 98.127 76.296ZM108.042 72.132H109.158V78H108.15L108.03 77.112C107.694 77.724 106.914 78.144 106.05 78.144C104.682 78.144 103.914 77.22 103.914 75.78V72.132H105.042V75.408C105.042 76.668 105.582 77.148 106.446 77.148C107.478 77.148 108.042 76.488 108.042 75.228V72.132ZM113.209 78.144C111.481 78.144 110.293 76.896 110.293 75.072C110.293 73.236 111.457 71.964 113.161 71.964C114.829 71.964 115.921 73.116 115.921 74.856V75.276L111.385 75.288C111.469 76.524 112.117 77.208 113.233 77.208C114.109 77.208 114.685 76.848 114.877 76.176H115.933C115.645 77.436 114.661 78.144 113.209 78.144ZM113.161 72.912C112.177 72.912 111.553 73.5 111.409 74.532H114.793C114.793 73.56 114.157 72.912 113.161 72.912ZM116.701 76.296H117.781C117.781 76.896 118.237 77.256 118.981 77.256C119.773 77.256 120.229 76.932 120.229 76.392C120.229 75.996 120.037 75.756 119.425 75.6L118.393 75.36C117.349 75.108 116.857 74.592 116.857 73.728C116.857 72.648 117.769 71.964 119.065 71.964C120.349 71.964 121.189 72.684 121.213 73.8H120.133C120.109 73.212 119.713 72.84 119.029 72.84C118.321 72.84 117.925 73.152 117.925 73.692C117.925 74.088 118.213 74.352 118.789 74.496L119.821 74.748C120.817 74.988 121.309 75.444 121.309 76.32C121.309 77.436 120.349 78.144 118.957 78.144C117.577 78.144 116.701 77.412 116.701 76.296Z" fill="#737373"/>
<path d="M90.4973 108.108H88.0053V112H84.6173V108.108H74.2293V104.972L83.4973 91.532H88.0053V104.972H90.4973V108.108ZM78.0373 104.972H84.6173V95.396L78.0373 104.972ZM95.3074 97.552L99.7314 91.532H103.819L98.9194 98.056C99.4234 97.916 99.9554 97.832 100.459 97.832C104.687 97.832 107.543 100.8 107.543 104.944C107.543 109.312 104.295 112.364 99.9274 112.364C95.5034 112.364 92.1994 109.116 92.1994 104.916C92.1994 102.452 93.0114 100.66 95.3074 97.552ZM95.8674 104.944C95.8674 107.436 97.5194 109.172 99.9274 109.172C102.251 109.172 103.931 107.436 103.931 104.944C103.931 102.48 102.279 100.772 99.9274 100.772C97.4914 100.772 95.8674 102.48 95.8674 104.944Z" fill="#0A0A0A"/>
<path d="M91 1C104.805 1 118.425 4.17571 130.806 10.2815C143.187 16.3872 153.998 25.2593 162.402 36.2115C170.806 47.1636 176.577 59.9022 179.271 73.4419C181.964 86.9815 181.506 100.959 177.933 114.294C174.36 127.628 167.768 139.962 158.666 150.341C149.563 160.72 138.196 168.866 125.441 174.149C112.687 179.432 98.889 181.71 85.1137 180.807C71.3384 179.904 57.9554 175.845 46 168.942L58.6 147.118C67.2079 152.088 76.8436 155.011 86.7619 155.661C96.6801 156.311 106.615 154.671 115.798 150.867C124.981 147.064 133.166 141.199 139.719 133.726C146.273 126.253 151.019 117.372 153.592 107.771C156.165 98.1706 156.494 88.1067 154.555 78.3582C152.616 68.6096 148.46 59.4378 142.409 51.5523C136.359 43.6667 128.575 37.2788 119.66 32.8826C110.746 28.4865 100.94 26.2 91 26.2V1Z" fill="#3B82F6" stroke="white" stroke-width="2"/>
<path d="M13.0577 46C20.9569 32.3183 32.3183 20.9569 46 13.0577C59.6817 5.15856 75.2017 1 91 1V26.2C79.6252 26.2 68.4508 29.1942 58.6 34.8815C48.7492 40.5689 40.5689 48.7492 34.8815 58.6L13.0577 46Z" fill="#14B8A6" stroke="white" stroke-width="2"/>
<path d="M46 168.942C35.7645 163.033 26.7931 155.165 19.5982 145.789C12.4033 136.412 7.12565 125.71 4.06667 114.294C1.0077 102.877 0.227277 90.9705 1.76996 79.2526C3.31265 67.5348 7.14824 56.2355 13.0577 46L34.8816 58.6C30.6267 65.9696 27.8651 74.105 26.7544 82.5419C25.6436 90.9787 26.2055 99.5518 28.408 107.771C30.6105 115.991 34.4103 123.697 39.5907 130.448C44.771 137.199 51.2304 142.864 58.6 147.118L46 168.942Z" fill="#F59E0B" stroke="white" stroke-width="2"/>
</svg>
