<svg width="20" height="20" viewBox="0 0 20 20" fill="none" xmlns="http://www.w3.org/2000/svg">
<path d="M9.02747 0.827454C4.52752 1.3249 1.02747 5.13997 1.02747 9.77252C1.02747 14.7431 5.0569 18.7725 10.0275 18.7725C14.66 18.7725 18.4751 15.2725 18.9725 10.7725H9.02747V0.827454Z" fill="#A3B18A"/>
<path d="M18.5153 6.77253H13.0275V1.28482C15.5846 2.18866 17.6114 4.21537 18.5153 6.77253Z" fill="#A3B18A"/>
<path d="M9.02747 0.827454C4.52752 1.3249 1.02747 5.13997 1.02747 9.77252C1.02747 14.7431 5.0569 18.7725 10.0275 18.7725C14.66 18.7725 18.4751 15.2725 18.9725 10.7725H9.02747V0.827454Z" stroke="#A3B18A" stroke-width="1.6" stroke-linecap="round" stroke-linejoin="round"/>
<path d="M18.5153 6.77253H13.0275V1.28482C15.5846 2.18866 17.6114 4.21537 18.5153 6.77253Z" stroke="#A3B18A" stroke-width="1.6" stroke-linecap="round" stroke-linejoin="round"/>
</svg>
