<svg width="20" height="19" viewBox="0 0 20 19" fill="none" xmlns="http://www.w3.org/2000/svg">
<path d="M10.8485 0.960607C10.3799 0.516386 9.6201 0.516386 9.15147 0.960607L0.751473 8.92311C0.282844 9.36733 0.282844 10.0876 0.751473 10.5318C1.2201 10.976 1.9799 10.976 2.44853 10.5318L2.8 10.1986V17.6899C2.8 18.3182 3.33726 18.8274 4 18.8274H6.4C7.06274 18.8274 7.6 18.3182 7.6 17.6899V15.4149C7.6 14.7867 8.13726 14.2774 8.8 14.2774H11.2C11.8627 14.2774 12.4 14.7867 12.4 15.4149V17.6899C12.4 18.3182 12.9373 18.8274 13.6 18.8274H16C16.6627 18.8274 17.2 18.3182 17.2 17.6899V10.1986L17.5515 10.5318C18.0201 10.976 18.7799 10.976 19.2485 10.5318C19.7172 10.0876 19.7172 9.36733 19.2485 8.92311L10.8485 0.960607Z" fill="#A3B18A"/>
</svg>
