<svg width="19" height="22" viewBox="0 0 19 22" fill="none" xmlns="http://www.w3.org/2000/svg">
<path d="M15.9369 16.3399V17.4755C15.9369 17.6234 15.9957 17.7653 16.1003 17.8699C16.2049 17.9745 16.3467 18.0332 16.4947 18.0332C16.6426 18.0332 16.7845 17.9745 16.889 17.8699C16.9936 17.7653 17.0524 17.6234 17.0524 17.4755V16.3399C17.0508 16.1922 16.9925 16.0509 16.8895 15.945C16.8115 15.8668 16.7121 15.8135 16.6037 15.7919C16.4954 15.7703 16.3831 15.7813 16.2811 15.8236C16.179 15.8659 16.0919 15.9376 16.0306 16.0295C15.9693 16.1214 15.9367 16.2294 15.9369 16.3399Z" fill="black"/>
<path d="M9.12674 16.3399V17.4755C9.12865 17.6227 9.18694 17.7636 9.2896 17.8692C9.36754 17.9474 9.46691 18.0006 9.57513 18.0223C9.68335 18.0439 9.79556 18.033 9.89756 17.9908C9.99955 17.9486 10.0867 17.8772 10.1481 17.7854C10.2095 17.6937 10.2422 17.5858 10.2422 17.4755V16.3399C10.2401 16.1923 10.1818 16.0512 10.0794 15.945C10.0014 15.8668 9.9019 15.8135 9.79358 15.7919C9.68525 15.7703 9.57295 15.7813 9.47091 15.8236C9.36888 15.8659 9.28169 15.9376 9.22042 16.0295C9.15915 16.1214 9.12654 16.2294 9.12674 16.3399Z" fill="black"/>
<path d="M12.5313 20.3067V21.4423C12.5313 21.5902 12.59 21.7321 12.6946 21.8367C12.7992 21.9412 12.9411 22 13.089 22C13.2369 22 13.3788 21.9412 13.4834 21.8367C13.588 21.7321 13.6468 21.5902 13.6468 21.4423V20.3067C13.6451 20.159 13.5868 20.0177 13.4839 19.9118C13.4059 19.8336 13.3064 19.7803 13.1981 19.7587C13.0898 19.7371 12.9775 19.7481 12.8754 19.7904C12.7734 19.8327 12.6862 19.9044 12.6249 19.9963C12.5637 20.0882 12.5311 20.1962 12.5313 20.3067Z" fill="black"/>
<path d="M5.72 20.3067V21.4423C5.72 21.5902 5.77876 21.7321 5.88336 21.8367C5.98796 21.9412 6.12983 22 6.27775 22C6.42568 22 6.56755 21.9412 6.67214 21.8367C6.77674 21.7321 6.83551 21.5902 6.83551 21.4423V20.3067C6.83331 20.1591 6.77509 20.018 6.67264 19.9118C6.59464 19.8336 6.49517 19.7803 6.38684 19.7587C6.27852 19.7371 6.16622 19.7481 6.06418 19.7904C5.96214 19.8327 5.87495 19.9044 5.81368 19.9963C5.75241 20.0882 5.7198 20.1962 5.72 20.3067Z" fill="black"/>
<path d="M2.31436 16.3399V17.4755C2.31436 17.6234 2.37313 17.7653 2.47772 17.8699C2.58232 17.9745 2.72419 18.0332 2.87212 18.0332C3.02004 18.0332 3.16191 17.9745 3.26651 17.8699C3.3711 17.7653 3.42987 17.6234 3.42987 17.4755V16.3399C3.42767 16.1923 3.36945 16.0512 3.267 15.945C3.189 15.8668 3.08953 15.8135 2.9812 15.7919C2.87288 15.7703 2.76058 15.7813 2.65854 15.8236C2.5565 15.8659 2.46932 15.9376 2.40804 16.0295C2.34677 16.1214 2.31416 16.2294 2.31436 16.3399Z" fill="black"/>
<path d="M14.2581 13.4853H7.5762C5.81964 13.5108 4.12096 12.8577 2.83388 11.6621C1.54681 10.4664 0.77055 8.8204 0.666755 7.06673C0.62281 6.15507 0.76443 5.24397 1.08303 4.38867C1.40163 3.53336 1.89058 2.75164 2.52024 2.0909C3.1499 1.43016 3.90717 0.904139 4.74615 0.544729C5.58512 0.185318 6.48834 -1.42582e-06 7.40106 0C8.86031 0.00623395 10.2785 0.483722 11.4444 1.36133C12.6102 2.23894 13.4614 3.46972 13.871 4.8703C14.5443 4.79391 15.2261 4.87507 15.8626 5.10738C16.4992 5.3397 17.073 5.71679 17.5388 6.2089C17.9452 6.64042 18.2579 7.1514 18.4572 7.70969C18.6564 8.26797 18.738 8.86145 18.6967 9.45279C18.6034 10.5615 18.0938 11.5937 17.2703 12.3419C16.4468 13.09 15.3706 13.4986 14.2581 13.4853ZM1.78114 7.0143C1.87197 8.48101 2.52497 9.85619 3.60421 10.8536C4.68345 11.8509 6.10577 12.3936 7.57508 12.3687H14.2581C15.0887 12.3839 15.8943 12.0836 16.5124 11.5284C17.1305 10.9733 17.5152 10.2045 17.589 9.37694C17.6231 8.87924 17.5405 8.38046 17.3479 7.92029C17.1553 7.46013 16.8579 7.05128 16.4794 6.72631C16.1009 6.40133 15.6518 6.1692 15.1677 6.04839C14.6837 5.92758 14.1782 5.92143 13.6914 6.03042L13.4683 6.08174L13.1894 5.94341C13.1152 5.89631 13.051 5.83484 13.0009 5.76263C12.9507 5.69041 12.9154 5.60889 12.8972 5.52287C12.6164 4.27396 11.9196 3.15753 10.9209 2.35672C9.92228 1.5559 8.68114 1.11823 7.40106 1.11551C6.63921 1.11536 5.88527 1.26997 5.18496 1.56995C4.48465 1.86993 3.85257 2.30903 3.32706 2.86062C2.80155 3.41221 2.39355 4.0648 2.12781 4.7788C1.86207 5.49281 1.74413 6.25335 1.78114 7.0143Z" fill="black"/>
</svg>
