<svg width="233" height="232" viewBox="0 0 233 232" fill="none" xmlns="http://www.w3.org/2000/svg">
<rect x="1" y="0.5" width="231" height="231" rx="115.5" stroke="#D4D4D4"/>
<rect x="27.5143" y="27.0143" width="177.972" height="177.972" rx="88.9858" stroke="#F5F5F5"/>
<rect x="54.0285" y="53.5285" width="124.943" height="124.943" rx="62.4715" stroke="#F5F5F5"/>
<rect x="80.5428" y="80.0428" width="71.9142" height="71.9142" rx="35.9571" stroke="#F5F5F5"/>
<rect x="107.057" y="106.557" width="18.8857" height="18.8857" rx="9.44286" stroke="#F5F5F5"/>
<path d="M0.5 116H232.5" stroke="#D4D4D4"/>
<path d="M116.5 0L116.5 232" stroke="#D4D4D4"/>
<path d="M34.4755 33.9755L198.524 198.024" stroke="#D4D4D4"/>
<path d="M198.525 33.9755L34.4758 198.024" stroke="#D4D4D4"/>
<path d="M116.25 23.9767C130.037 23.9767 143.647 27.0831 156.069 33.0651C168.491 39.0472 179.405 47.7511 188.001 58.5303L116.25 115.75V23.9767Z" fill="#3A5A40"/>
<path d="M160.191 80.6789C165.46 87.2803 169.174 94.9839 171.057 103.218C172.939 111.451 172.943 120.003 171.067 128.238L116.25 115.75L160.191 80.6789Z" fill="#588157"/>
<path d="M150.106 123.468C148.947 128.554 146.656 133.314 143.405 137.393C140.153 141.473 136.024 144.767 131.325 147.032L116.25 115.75L150.106 123.468Z" fill="#84AF83"/>
<path d="M159.29 205.143C145.86 211.609 131.147 214.966 116.242 214.964C101.337 214.963 86.6234 211.603 73.1949 205.135L116.25 115.75L159.29 205.143Z" fill="#588157"/>
<path d="M77.8523 195.448C65.8791 189.68 55.3595 181.288 47.075 170.896C38.7904 160.503 32.9538 148.378 29.9987 135.42L116.25 115.75L77.8523 195.448Z" fill="#A3B18A"/>
<path d="M52.5666 130.262C50.3865 120.694 50.39 110.759 52.5769 101.193C54.7638 91.6275 59.0778 82.6775 65.1985 75.008L116.25 115.75L52.5666 130.262Z" fill="#C1CEAA"/>
<path d="M75.5301 83.2692C80.4097 77.1518 86.6049 72.2125 93.6555 68.8181C100.706 65.4238 108.431 63.6616 116.256 63.6625L116.25 115.75L75.5301 83.2692Z" fill="#D4E3B8"/>
</svg>
